<?xml version="1.0" standalone="no"?>
<!DOCTYPE svg PUBLIC "-//W3C//DTD SVG 20010904//EN"
 "http://www.w3.org/TR/2001/REC-SVG-20010904/DTD/svg10.dtd">
<svg version="1.0" xmlns="http://www.w3.org/2000/svg"
 width="16.000000pt" height="16.000000pt" viewBox="0 0 16.000000 16.000000"
 preserveAspectRatio="xMidYMid meet">
<metadata>
Created by potrace 1.11, written by Peter Selinger 2001-2013
</metadata>
<g transform="translate(0.000000,16.000000) scale(0.006154,-0.006154)"
fill="#000000" stroke="none">
<path d="M1070 2540 c0 -5 9 -27 20 -49 12 -21 24 -56 27 -76 6 -37 6 -38 -21
-31 -24 6 -27 4 -26 -16 5 -60 0 -90 -14 -85 -12 5 -14 -3 -10 -42 l4 -47 -52
-13 c-129 -31 -355 -167 -449 -268 -102 -110 -187 -274 -205 -393 -3 -19 -7
-42 -9 -50 -4 -14 -19 -744 -24 -1151 l-1 -85 -83 -42 c-45 -23 -104 -47 -132
-53 -27 -6 -57 -12 -65 -14 -8 -2 -18 -4 -22 -4 -5 -1 -8 -28 -8 -61 l0 -60
1301 0 1300 0 -3 46 -3 47 -190 64 c-104 36 -200 67 -212 70 -20 5 -23 12 -24
52 0 25 -2 64 -4 86 -1 22 -6 87 -9 145 -4 58 -9 130 -11 160 -2 30 -7 98 -10
150 -9 143 -16 224 -21 232 -3 5 0 8 6 8 6 0 8 5 4 12 -4 6 -8 25 -9 42 -2 17
-6 74 -10 126 -4 52 -9 136 -10 185 -5 182 -8 212 -26 287 -42 176 -124 266
-346 377 -84 42 -222 93 -258 95 -17 1 -20 8 -20 43 1 37 -1 41 -15 29 -23
-21 -36 -10 -34 31 1 20 -3 48 -8 62 l-11 26 -10 -27 c-11 -30 -25 -36 -31
-15 -2 6 -9 30 -15 53 -13 49 -80 131 -81 99 -1 -45 -16 -47 -45 -4 -16 22
-38 44 -50 49 -43 15 -75 20 -75 10z"/>
</g>
</svg>
